<?xml version="1.0" encoding="iso-8859-1"?>
<!-- Generator: Adobe Illustrator 18.0.0, SVG Export Plug-In . SVG Version: 6.00 Build 0)  -->
<!DOCTYPE svg PUBLIC "-//W3C//DTD SVG 1.1//EN" "http://www.w3.org/Graphics/SVG/1.1/DTD/svg11.dtd">
<svg version="1.1" id="Capa_1" xmlns="http://www.w3.org/2000/svg" xmlns:xlink="http://www.w3.org/1999/xlink" x="0px" y="0px"
	 viewBox="0 0 95.811 79.97" style="enable-background:new 0 0 95.811 79.97;" xml:space="preserve">
<path d="M90.608,0.14V0h-0.469H5.625H5.156v0.14C2.391,0.33,0.328,2.53,0,5.2v0.47v55.69c0,1.08,0.281,1.99,0.75,2.81
	c1.079,1.9,2.672,2.86,4.875,2.86h30.843v7.78h-5.859c-1.453,0-2.578,1.13-2.578,2.58s1.125,2.58,2.578,2.58h34.546
	c1.453,0,2.625-1.13,2.625-2.58s-1.172-2.58-2.625-2.58h-5.859v-7.78h30.843c2.204,0,3.811-0.96,4.875-2.86
	c0.483-0.86,0.797-1.78,0.797-2.81V5.67V5.2C95.483,2.53,93.28,0.33,90.608,0.14z M90.608,5.67v55.69c0,0.33-0.14,0.47-0.469,0.47
	H5.625c-0.328,0-0.469-0.14-0.469-0.47V5.67V5.2h85.452V5.67z"/>
<g>
</g>
<g>
</g>
<g>
</g>
<g>
</g>
<g>
</g>
<g>
</g>
<g>
</g>
<g>
</g>
<g>
</g>
<g>
</g>
<g>
</g>
<g>
</g>
<g>
</g>
<g>
</g>
<g>
</g>
</svg>
