<?xml version="1.0" encoding="iso-8859-1"?>
<!-- Generator: Adobe Illustrator 16.0.0, SVG Export Plug-In . SVG Version: 6.00 Build 0)  -->
<!DOCTYPE svg PUBLIC "-//W3C//DTD SVG 1.1//EN" "http://www.w3.org/Graphics/SVG/1.1/DTD/svg11.dtd">
<svg version="1.1" id="Capa_1" xmlns="http://www.w3.org/2000/svg" xmlns:xlink="http://www.w3.org/1999/xlink" x="0px" y="0px"
	 width="15.54px" height="27.442px" viewBox="0 0 15.54 27.442" style="enable-background:new 0 0 15.54 27.442;"
	 xml:space="preserve">
<path style="fill:#000000;" d="M13.543,0H1.997C0.892,0,0,0.896,0,1.999v23.446c0,1.102,0.892,1.997,1.997,1.997h11.546
	c1.103,0,1.997-0.895,1.997-1.997V1.999C15.54,0.896,14.646,0,13.543,0z M4.921,1.214h5.7c0.144,0,0.261,0.215,0.261,0.481
	c0,0.266-0.117,0.482-0.261,0.482h-5.7c-0.145,0-0.26-0.216-0.26-0.482C4.661,1.429,4.776,1.214,4.921,1.214z M7.771,25.469
	c-0.703,0-1.275-0.572-1.275-1.276s0.572-1.274,1.275-1.274c0.701,0,1.273,0.57,1.273,1.274S8.472,25.469,7.771,25.469z
	 M14.044,21.1H1.497V3.373h12.547V21.1z"/>
<g>
</g>
<g>
</g>
<g>
</g>
<g>
</g>
<g>
</g>
<g>
</g>
<g>
</g>
<g>
</g>
<g>
</g>
<g>
</g>
<g>
</g>
<g>
</g>
<g>
</g>
<g>
</g>
<g>
</g>
</svg>
