<?xml version="1.0" encoding="iso-8859-1"?>
<!-- Generator: Adobe Illustrator 17.1.0, SVG Export Plug-In . SVG Version: 6.00 Build 0)  -->
<!DOCTYPE svg PUBLIC "-//W3C//DTD SVG 1.1//EN" "http://www.w3.org/Graphics/SVG/1.1/DTD/svg11.dtd">
<svg version="1.1" id="Capa_1" xmlns="http://www.w3.org/2000/svg" xmlns:xlink="http://www.w3.org/1999/xlink" x="0px" y="0px"
	 viewBox="0 0 150 150" style="enable-background:new 0 0 150 150;" xml:space="preserve">
<g>
	<path d="M75,145.72c38.995,0,70.72-31.725,70.72-70.72c0-29.577-18.259-54.957-44.09-65.498c-2.091-0.853-4.229-1.61-6.414-2.262
		C88.807,5.323,82.024,4.28,75,4.28C36.005,4.28,4.28,36.005,4.28,75C4.28,113.995,36.005,145.72,75,145.72z M107.126,19.633
		c0.191-0.037,0.377-0.084,0.566-0.107c0.06-0.007,0.121-0.008,0.181-0.011c11.905,7.08,21.348,17.874,26.719,30.779
		c-0.577-0.472-1.265-0.745-2.061-0.798c-0.293-0.02-0.586-0.058-0.875-0.111c-0.833-0.151-1.447-0.599-1.75-1.4
		c-0.138-0.364-0.2-0.756-0.308-1.131c-0.037-0.13-0.107-0.251-0.17-0.393c-0.1,0.061-0.174,0.087-0.22,0.138
		c-0.131,0.146-0.254,0.298-0.373,0.454c-0.149,0.195-0.279,0.405-0.438,0.591c-0.516,0.604-0.93,0.566-1.304-0.117
		c-0.082-0.15-0.151-0.308-0.212-0.468c-0.087-0.229-0.157-0.464-0.242-0.694c-0.119-0.322-0.226-0.649-0.371-0.959
		c-0.281-0.6-0.546-0.63-0.949-0.127c-0.077,0.096-0.141,0.202-0.224,0.292c-0.133,0.144-0.265,0.292-0.418,0.412
		c-0.531,0.415-1.075,0.415-1.62,0.011c-0.098-0.073-0.183-0.162-0.274-0.244c-0.251-0.226-0.371-0.493-0.358-0.844
		c0.016-0.44,0.005-0.884-0.04-1.322c-0.027-0.262-0.12-0.523-0.221-0.77c-0.082-0.201-0.32-0.253-0.498-0.127
		c-0.178,0.126-0.34,0.275-0.538,0.438c-0.221-0.093-0.447-0.181-0.666-0.281c-0.959-0.435-1.913-0.881-2.876-1.308
		c-0.33-0.146-0.636-0.315-0.916-0.684c-0.517,1.726-0.564,3.424-0.81,5.123c-0.181,0.057-0.362,0.125-0.548,0.172
		c-0.806,0.205-1.621,0.381-2.42,0.611c-1.306,0.377-2.464,0.117-3.521-0.713c-0.765-0.601-1.356-1.347-1.833-2.184
		c-0.607-1.065-1.195-2.141-1.788-3.213c-0.069-0.125-0.121-0.26-0.186-0.4c0.272-0.301,0.628-0.419,0.941-0.599
		c1.432-0.823,2.951-1.309,4.629-1.145c0.205,0.02,0.386-0.017,0.554-0.141c0.118-0.087,0.25-0.155,0.374-0.234
		c0.621-0.394,1.308-0.715,1.843-1.204c0.553-0.506,0.964-1.17,1.423-1.776c0.189-0.249,0.424-0.473,0.541-0.788
		c-0.216-0.504-0.409-1.007-0.645-1.49c-0.193-0.394-0.231-0.79-0.162-1.213c0.083-0.508,0.16-1.017,0.225-1.527
		c0.023-0.185,0.104-0.387-0.079-0.583c-0.8-0.109-1.621-0.251-2.447-0.322c-0.396-0.034-0.626-0.198-0.807-0.524
		c-0.249-0.45-0.54-0.878-0.781-1.332c-0.169-0.32-0.417-0.456-0.76-0.491c-0.463-0.047-0.922-0.136-1.386-0.162
		c-0.376-0.021-0.649-0.185-0.887-0.453c-0.365-0.412-0.591-0.899-0.759-1.415c-0.238-0.728-0.319-1.484-0.377-2.243
		C106.93,21.624,106.972,20.648,107.126,19.633z M104.034,26.86c-0.15-0.492-0.122-0.678,0.185-0.909
		c0.389-0.294,0.898-0.36,1.231-0.123c0.196,0.14,0.378,0.316,0.523,0.508c0.39,0.514,0.827,0.941,1.439,1.212
		c0.681,0.301,1.199,0.842,1.666,1.415c0.88,1.08,1.463,2.311,1.812,3.655c0.024,0.093,0.021,0.193,0.035,0.343
		c-0.521,0.514-1.078,0.908-1.688,1.226c-0.216,0.112-0.445,0.211-0.68,0.271c-1.406,0.36-2.244-0.419-2.495-1.499
		c-0.199-0.856-0.331-1.728-0.502-2.644c-0.152,0.039-0.29,0.053-0.41,0.108c-0.508,0.233-1.011,0.478-1.544,0.732
		c-0.418-0.551-0.705-1.132-1.001-1.751c0.542-0.488,1.141-0.87,1.677-1.325C104.357,27.628,104.153,27.25,104.034,26.86z
		 M103.491,53.663c0.422-0.114,0.747-0.305,1.023-0.646c0.71-0.877,1.459-1.722,2.166-2.601c0.245-0.304,0.524-0.481,0.893-0.588
		c1.104-0.32,2.201-0.666,3.3-1.005c0.965-0.298,1.95-0.454,2.962-0.494c1.834-0.072,3.621,0.138,5.339,0.804
		c0.288,0.112,0.569,0.122,0.863,0.118c1.03-0.015,2.059-0.027,3.082,0.139c0.978,0.158,1.884,0.424,2.684,1.08
		c1.403,1.149,2.868,2.224,4.306,3.331c0.792,0.609,0.791,0.611,1.794,0.589c1.442-0.033,2.881-0.025,4.304,0.25
		c2.136,6.406,3.311,13.247,3.311,20.362c0,21.843-10.922,41.173-27.58,52.851c0.026-0.188,0.073-0.379,0.137-0.572
		c0.132-0.395,0.251-0.796,0.42-1.176c0.506-1.142,1.032-2.275,1.553-3.411c0.571-1.247,1.143-2.494,1.718-3.74
		c0.353-0.765,0.401-1.551,0.221-2.37c-0.21-0.957-0.391-1.92-0.583-2.881c-0.191-0.954-0.204-1.903,0.125-2.831
		c0.621-1.75,1.459-3.371,2.814-4.685c0.422-0.409,0.813-0.852,1.194-1.3c0.496-0.583,0.873-1.241,1.142-1.96
		c0.342-0.914,0.465-1.84,0.274-2.814c-0.147-0.751-0.417-1.459-0.664-2.176c-0.207-0.602-0.428-1.2-0.606-1.811
		c-0.286-0.984-0.327-1.987-0.057-2.98c0.174-0.637,0.399-1.261,0.621-1.883c0.23-0.646,0.492-1.28,0.723-1.926
		c0.299-0.84,0.47-1.708,0.384-2.599c-0.059-0.607-0.164-1.214-0.309-1.807c-0.156-0.636-0.428-0.751-1.021-0.516
		c-0.228,0.09-0.447,0.199-0.672,0.296c-0.698,0.299-1.139,0.169-1.488-0.337c-0.259-0.376-0.643-0.602-1.082-0.717
		c-0.378-0.099-0.758-0.223-1.144-0.251c-1.299-0.094-2.598-0.042-3.896,0.036c-0.954,0.057-1.91,0.086-2.865,0.103
		c-0.29,0.005-0.583-0.06-0.871-0.113c-0.776-0.143-1.504-0.428-2.215-0.765c-1.292-0.614-2.46-1.42-3.579-2.304
		c-1.813-1.432-3.439-3.069-5.101-4.667c-0.223-0.214-0.36-0.471-0.434-0.754c-0.092-0.354-0.168-0.718-0.199-1.082
		c-0.145-1.676,0.063-3.328,0.369-4.972c0.328-1.76,0.783-3.489,1.285-5.207c0.283-0.969,0.439-1.959,0.431-2.973
		c-0.003-0.423-0.035-0.836-0.258-1.206c-0.196-0.325-0.188-0.662-0.041-0.987c0.242-0.535,0.472-1.082,0.779-1.579
		C100.083,55.253,101.589,54.175,103.491,53.663z M90.521,19.712c-0.489,0.413-0.677,0.928-0.82,1.499
		c-0.047,0.188-0.122,0.368-0.21,0.628c-1.001-0.107-1.929-0.286-2.848-0.534c-0.435-0.117-0.817-0.324-1.173-0.583
		c-0.157-0.114-0.306-0.248-0.428-0.398c-0.418-0.512-0.293-1.145,0.313-1.385c1.203-0.476,2.423-0.908,3.634-1.363
		c0.171-0.064,0.327-0.066,0.492,0.013c0.4,0.193,0.774,0.422,1.067,0.761C90.952,18.821,90.993,19.313,90.521,19.712z M75.515,13.8
		c0.435-1.088,0.846-2.185,1.28-3.273c4.538,0.125,8.958,0.717,13.218,1.737c-0.586,0.932-1.161,1.869-1.762,2.762
		c-0.884,0.16-1.7,0.325-2.522,0.45c-0.336,0.051-0.583,0.18-0.802,0.441c-0.899,1.07-1.824,2.119-2.723,3.19
		c-0.789,0.939-1.554,1.897-2.334,2.844c-0.105,0.128-0.231,0.238-0.345,0.354c-0.599-0.218-1.071-0.56-1.503-0.965
		c-0.748-0.7-1.273-1.552-1.668-2.486c-0.528-1.251-0.826-2.559-0.977-3.908C75.331,14.54,75.364,14.177,75.515,13.8z
		 M24.477,53.663c0.033-0.932,0.285-1.814,0.3-2.737c-0.246-0.103-0.469-0.196-0.691-0.291c-1.109-0.475-2.159-1.049-3.102-1.809
		c-0.577-0.465-1.093-0.987-1.488-1.617c-0.51-0.814-0.762-1.689-0.614-2.661c0.087-0.57,0.155-1.144,0.226-1.716
		c11.1-19.21,31.8-32.2,55.503-32.341c0.194,0.418,0.39,0.836,0.579,1.256c0.057,0.126,0.075,0.269,0.114,0.413
		c-0.764,0.588-1.517,1.136-2.234,1.729c-0.714,0.591-1.348,1.276-2.099,1.862c-0.356-0.682-0.911-1.123-1.483-1.542
		c-0.957-0.703-0.624-0.582-1.813-0.542c-0.806,0.027-1.61,0.078-2.369,0.414c-0.41,0.182-0.86,0.175-1.304,0.151
		c-0.337-0.018-0.617-0.145-0.822-0.419c-0.059-0.078-0.106-0.165-0.166-0.243c-0.189-0.244-0.445-0.308-0.723-0.215
		c-0.23,0.078-0.462,0.177-0.661,0.313c-0.343,0.235-0.681,0.485-0.985,0.767c-0.38,0.352-0.789,0.658-1.224,0.936
		c-0.662,0.421-1.314,0.858-1.979,1.273c-0.246,0.154-0.396,0.339-0.438,0.635c-0.065,0.46-0.191,0.913-0.239,1.375
		c-0.062,0.61-0.08,1.225,0.121,1.822c0.269,0.799,0.954,1.149,1.747,0.856c0.947-0.35,1.835-0.817,2.629-1.449
		c0.525-0.418,0.96-0.91,1.201-1.552c0.043-0.114,0.094-0.227,0.159-0.329c0.143-0.22,0.324-0.277,0.564-0.172
		c0.202,0.088,0.394,0.197,0.593,0.292c0.5,0.24,0.999,0.228,1.478-0.046c0.254-0.145,0.497-0.315,0.724-0.499
		c0.208-0.169,0.392-0.37,0.581-0.563c0.313-0.32,0.676-0.568,1.089-0.735c0.777-0.314,1.334-0.17,1.781,0.528
		c0.34,0.532,0.777,0.939,1.291,1.286c0.223,0.15,0.44,0.315,0.634,0.499c0.307,0.292,0.404,0.653,0.303,1.075
		c-0.11,0.463-0.34,0.863-0.587,1.26c-0.208,0.333-0.421,0.662-0.608,1.006c-0.092,0.168-0.146,0.363-0.183,0.553
		c-0.04,0.201,0.146,0.405,0.349,0.371c0.263-0.044,0.518-0.134,0.777-0.205c0.154-0.042,0.307-0.084,0.537-0.147
		c-0.086,1.527-0.316,2.939-1.05,4.227c-0.132,0.232-0.298,0.455-0.489,0.641c-0.545,0.53-1.191,0.749-1.953,0.563
		c-0.53-0.13-1.014-0.32-1.43-0.701c-0.815-0.745-1.569-0.658-2.302,0.141c-0.23,0.25-0.432,0.539-0.587,0.841
		c-0.162,0.314-0.398,0.469-0.722,0.557c-1.434,0.388-2.886,0.552-4.366,0.356c-0.249-0.033-0.478-0.021-0.721,0.052
		c-0.937,0.282-1.881,0.544-2.822,0.812c-0.378,0.108-0.735,0.256-1.073,0.464c-0.628,0.386-1.291,0.706-1.995,0.928
		c-0.714,0.225-1.434,0.347-2.125-0.151c-2.243,1.874-4.739,3.244-7.521,4.131c-0.165,1.041-0.325,2.055-0.484,3.069
		c-0.195,1.235-0.387,2.47-0.585,3.704c-0.05,0.312-0.178,0.432-0.464,0.479c-0.335,0.055-0.652-0.003-0.874-0.267
		c-0.219-0.26-0.425-0.54-0.579-0.841c-0.394-0.771-0.632-1.603-0.722-2.456c-0.126-1.194-0.756-2-1.786-2.516
		c-1.354-0.678-2.805-0.905-4.291-0.644c-2.442,0.429-4.53,1.57-6.211,3.393c-1.42,1.54-1.405,1.54-1.802,3.672
		c-0.138,0.744-0.156,1.514,0.082,2.259c0.244,0.765,0.745,1.238,1.542,1.409c0.415,0.089,0.822,0.128,1.238,0.039
		c0.454-0.097,0.908-0.197,1.364-0.284c0.137-0.026,0.3-0.053,0.42-0.004c0.344,0.138,0.648,0.348,0.876,0.649
		c0.289,0.38,0.37,0.788,0.168,1.241c-0.153,0.343-0.369,0.642-0.65,0.881c-0.354,0.302-0.733,0.574-1.103,0.855
		c-0.156,0.118-0.333,0.212-0.475,0.344c-0.602,0.563-0.592,1.238,0.024,1.774c0.147,0.128,0.316,0.231,0.48,0.337
		c0.14,0.09,0.289,0.168,0.454,0.263c-0.041,0.444-0.069,0.858-0.118,1.27c-0.129,1.076-0.135,2.156-0.077,3.233
		c0.055,1.03,0.5,1.899,1.341,2.511c0.553,0.403,1.145,0.757,1.746,1.084c0.339,0.185,0.724,0.299,1.101,0.397
		c1.109,0.289,2.1,0.04,2.903-0.777c0.339-0.345,0.614-0.762,0.874-1.174c0.48-0.764,1.181-1.085,2.06-0.909
		c0.473,0.095,0.882,0.327,1.212,0.656c0.411,0.408,0.902,0.665,1.41,0.909c0.684,0.329,1.362,0.672,2.05,0.993
		c0.241,0.112,0.499,0.197,0.757,0.263c1.936,0.489,3.596,1.424,4.821,3.03c0.254,0.333,0.544,0.518,0.927,0.652
		c1.819,0.638,3.489,1.554,4.983,2.776c1.883,1.542,3.297,3.42,4.024,5.765c0.171,0.551,0.416,1.015,0.831,1.43
		c0.394,0.395,0.722,0.869,1.019,1.345c0.4,0.644,0.742,1.324,1.11,1.989c0.093,0.168,0.189,0.334,0.271,0.477
		c0.354,0.071,0.667,0.127,0.977,0.196c2.074,0.462,4.03,1.213,5.801,2.404c0.921,0.619,1.744,1.349,2.456,2.204
		c0.196,0.236,0.31,0.476,0.315,0.793c0.042,2.796-0.973,5.067-3.305,6.681c-0.3,0.208-0.479,0.458-0.603,0.795
		c-0.6,1.633-1.214,3.26-1.837,4.884c-0.113,0.293-0.262,0.582-0.443,0.838c-0.821,1.162-1.668,2.305-2.486,3.468
		c-0.262,0.373-0.577,0.662-0.975,0.87c-0.304,0.158-0.606,0.323-0.916,0.469c-1.134,0.536-2.321,0.918-3.548,1.17
		c-0.325,0.067-0.58,0.192-0.791,0.472c-0.812,1.077-1.651,2.133-2.479,3.199c-0.09,0.116-0.184,0.232-0.253,0.361
		c-0.794,1.47-1.766,2.826-2.679,4.221c-0.206,0.315-0.46,0.562-0.773,0.769c-1.329,0.88-2.655,1.764-3.97,2.664
		c-0.383,0.261-0.746,0.558-1.084,0.875c-0.663,0.62-1.307,1.26-1.946,1.904c-0.169,0.17-0.327,0.37-0.427,0.586
		c-0.619,1.333-1.214,2.678-1.833,4.012c-0.132,0.284-0.155,0.555-0.099,0.854c0.417,2.215,0.832,4.431,1.242,6.647
		c0.048,0.257,0.102,0.519,0.099,0.783c-0.246,0.01-0.379,0.012-0.502-0.004c-1.132-0.661-2.248-1.346-3.335-2.072
		c-1.607-1.49-2.859-3.26-3.958-5.146c-0.107-0.184-0.162-0.411-0.193-0.624c-0.256-1.746-0.504-3.493-0.745-5.242
		c-0.031-0.227-0.106-0.419-0.232-0.607c-0.291-0.436-0.421-0.931-0.518-1.441c-0.227-1.203-0.093-2.395,0.084-3.586
		c0.209-1.406,0.424-2.811,0.636-4.216c0.03-0.198,0.015-0.378-0.114-0.554c-0.346-0.472-0.449-1.023-0.481-1.595
		c-0.062-1.091,0.129-2.148,0.405-3.196c0.099-0.378,0.188-0.761,0.245-1.146c0.188-1.261,0.362-2.523,0.534-3.786
		c0.072-0.531,0.127-1.064,0.187-1.567c-0.114-0.105-0.184-0.174-0.259-0.236c-0.706-0.592-1.118-1.35-1.291-2.249
		c-0.122-0.635-0.121-1.268-0.005-1.901c0.088-0.476,0.2-0.946,0.303-1.426c-0.248-0.17-0.47-0.319-0.69-0.474
		c-1.066-0.753-2.059-1.591-2.889-2.603c-0.855-1.043-1.701-2.094-2.524-3.162c-0.327-0.425-0.622-0.885-0.864-1.363
		c-0.394-0.78-0.589-1.612-0.389-2.492c0.046-0.204,0.006-0.382-0.062-0.571c-0.505-1.415-0.566-2.878-0.451-4.357
		c0.079-1.017,0.35-1.976,0.928-2.833c0.357-0.528,0.696-1.069,1.062-1.59c0.649-0.923,1.306-1.84,1.971-2.751
		c0.65-0.891,1.018-1.888,1.208-2.967c0.086-0.488,0.139-0.974,0.091-1.463c-0.074-0.758-0.337-1.423-0.991-1.889
		c-0.719-0.511-1.411-1.06-2.139-1.556c-0.376-0.256-0.552-0.587-0.652-1.012c-0.234-1.002-0.511-1.994-0.738-2.997
		c-0.081-0.356-0.229-0.628-0.51-0.859c-0.436-0.358-0.851-0.74-1.272-1.116C24.786,53.964,24.632,53.81,24.477,53.663z
		 M43.244,51.544c0.125-0.077,0.256-0.144,0.389-0.206c0.488-0.226,0.977-0.451,1.465-0.676c0.377-0.174,0.754-0.349,1.132-0.522
		c0.109-0.05,0.225-0.087,0.368-0.142c0.383,0.241,0.789,0.465,1.16,0.738c0.001,0.001,0.002,0.001,0.004,0.002
		c0.385,0.282,0.85,0.356,1.345,0.568c-0.122,0.596-0.168,1.151-0.539,1.624c-0.206-0.075-0.371-0.119-0.521-0.193
		c-0.832-0.407-1.716-0.556-2.633-0.546c-0.318,0.004-0.636,0.023-0.955,0.024c-0.367,0.001-0.735-0.003-1.101-0.023
		c-0.185-0.01-0.436,0.024-0.473-0.235C42.851,51.722,43.081,51.644,43.244,51.544z M41.537,48.143
		c-1.453-0.203-2.901-0.447-4.348-0.693c-0.428-0.073-0.872-0.147-1.197-0.483c0.323-1.055,1.014-1.608,2.049-1.714
		c0.725-0.075,1.373,0.07,1.908,0.565c0.838,0.774,1.821,1.085,2.95,1.097c0.58,0.006,1.163,0.146,1.736,0.266
		c0.201,0.042,0.404,0.178,0.558,0.321c0.117,0.109,0.14,0.265,0.098,0.4c-0.037,0.117-0.122,0.219-0.256,0.253
		c-0.377,0.095-0.772,0.181-1.156,0.17c-0.229-0.007-0.458-0.022-0.687-0.034C42.639,48.262,42.085,48.22,41.537,48.143z"/>
</g>
</svg>
